<?xml version="1.0" encoding="UTF-8"?>
<svg id="Calque_2" data-name="Calque 2" xmlns="http://www.w3.org/2000/svg" viewBox="0 0 187.54 192.9">
  <defs>
    <style>
      .cls-1 {
        stroke-width: 0px;
      }
    </style>
  </defs>
  <g id="Calque_1-2" data-name="Calque 1">
    <g id="ll1LlQ.tif">
      <g>
        <path fill='black' class="cls-1" d="M128.44,192.5h-32.2v-127.4c0-15-9.5-27.7-23.4-31.5-17.1-4.7-35.2,5.7-39.5,22.8-4.4,17.7,6.3,35.3,23.9,39.2,2.2.5,4.6.7,7,1v31.9c-10.9.2-21-2.3-31-7.6v72H2.34v-107.5c0-3-.6-5.9-1.2-8.9C-5.16,43.9,15.24,10.4,47.44,2.3c23.5-5.9,44.5-.5,62,16.8,12.9,12.8,19,28.1,19,46.2-.1,41.4,0,82.9,0,124.3,0,.9,0,1.8,0,2.9Z"/>
        <path fill='black' class="cls-1" d="M126.54.2c14.6,0,27.4,4.4,38.4,13.7,15.1,12.6,22.7,28.7,22.6,48.5-.2,42.5-.1,85-.1,127.5v2.9h-30.7V61.7c0-14.5-9.7-26.8-23.6-30-2.2-.5-4.4-.7-6.8-1,.2-10.1.2-20.2.2-30.5Z"/>
      </g>
    </g>
  </g>
</svg>