<?xml version="1.0" encoding="utf-8"?>
<svg width="402" height="402" viewBox="0 0 402 402" fill="none" xmlns="http://www.w3.org/2000/svg">
  <defs/>
  <rect width="402" height="402" fill="#0B0C18"/>
  <path d="M98.9999 242.171C88.5361 242.171 78.5723 242.171 68.3395 242.171C68.3395 201.837 68.3395 161.801 68.3395 121.164C71.5236 121.164 74.6344 121.131 77.7442 121.17C93.8814 121.373 110.087 120.732 126.141 121.999C154.87 124.268 173.835 144.232 175.877 173.013C176.67 184.196 176.143 195.28 171.947 205.913C170.888 208.598 169.526 209.91 166.262 210.154C154.418 211.039 144.904 220.64 144.005 232.531C143.768 235.66 142.344 236.831 139.866 237.84C130.091 241.821 119.856 242.399 109.489 242.182C106.161 242.113 102.83 242.171 98.9999 242.171ZM142.801 198.055C145.741 189.704 146.31 181.112 144.901 172.45C143.303 162.623 139.049 154.301 129.489 150.007C119.072 145.33 108.05 147.498 97.4169 147.095C97.4169 170.599 97.4169 193.347 97.4169 216.174C103.753 216.174 109.747 216.263 115.737 216.156C128.247 215.932 137.305 210.307 142.801 198.055Z" fill="#FDFDFD"/>
  <path d="M 347.687 251.093 C 342.517 266.687 330.172 277.671 315.168 281.858 C 286.07 289.979 260.058 283.318 237.52 263.191 C 237.17 262.879 236.944 262.428 236.418 261.711 C 237.684 260.243 240.649 256.47 242.475 254.67 C 279.208 261.655 313.636 264.684 347.687 251.093 Z" style="fill: rgb(46, 182, 230);"/>
  <path d="M214.823 259.127C207.734 273.737 195.895 281.961 180.062 284.384C160.602 287.361 143.678 282.589 130.926 266.809C128.287 263.544 126.533 259.564 124.422 255.999C132.548 253.639 139.855 251.517 147.685 249.243C152.335 255.42 158.797 259.698 168.03 260.618C173.226 261.272 177.716 262.174 182.138 261.913C193.05 261.269 203.93 260.091 214.823 259.127Z" style="fill: rgb(46, 182, 230);"/>
  <path d="M 264.466 201.962 C 251.188 194.457 244.129 180.872 243.56 165.341 C 253.294 165.581 262.516 166.685 271.739 167.338 C 273.966 175.81 282.813 180.603 290.291 183.892 C 302.702 189.352 315.687 195.207 327.912 201.008 C 314.389 204.987 300.408 207.084 286.507 205.067 C 279.164 204.002 271.813 202.995 264.466 201.962 Z" style="fill: rgb(46, 182, 230);"/>
  <path d="M 252.333 140.162 C 262.381 128.434 276.945 122.214 291.785 121.349 C 312.164 120.16 329.789 126.968 344.851 141.115 C 343.772 142.55 342.9 143.708 341.234 144.986 C 327.871 144.709 314.502 145.896 301.94 145.789 C 286.007 145.654 269.135 142.782 252.333 140.162 Z" style="fill: rgb(46, 182, 230);"/>
  <path d="M 263.687 201.505 C 270.814 202.237 277.055 198.229 284.398 199.294 C 298.299 201.311 313.838 204.539 327.546 200.839 C 338.775 206.459 347.469 219.751 349.258 231.994 C 339.643 234.131 333.672 244.167 320.413 235.215 C 319.575 230.087 312.395 224.238 306.836 221.754 C 294.305 216.157 281.76 210.591 269.239 204.972 C 267.737 204.298 265.349 202.615 263.687 201.505 Z" style="fill: rgb(46, 182, 230);"/>
  <path d="M 253.28 138.98 C 269.939 140.498 286.31 142.549 302.741 143.804 C 315.267 144.761 331.524 140.924 344.587 141.378 C 341.535 146.01 334.337 154.369 330.594 159.199 C 322.922 152.96 314.902 147.709 305.281 146.647 C 298.792 145.931 291.926 145.914 285.58 147.25 C 275.057 149.466 270.766 156.844 271.892 168.546 C 262.655 168.346 253.329 167.865 243.659 167.22 C 243.283 156.513 246.247 147.235 253.28 138.98 Z" style="fill: rgb(46, 182, 230);"/>
  <path d="M 320.172 233.566 C 329.391 231.436 338.644 229.705 348.277 227.928 C 350.653 236.181 349.909 244.907 346.919 253.269 C 312.002 265.571 276.647 261.975 240.858 256.447 C 244.71 251.986 248.28 247.722 252.169 242.903 C 261.246 250.659 270.844 256.652 282.242 259.327 C 290.143 261.181 297.992 261.364 305.852 259.131 C 318.176 255.628 323.473 246.37 320.172 233.566 Z" style="fill: rgb(46, 182, 230);"/>
  <path d="M 214.5 259.788 C 203.383 261.049 191.607 272.625 192.397 272.309 C 192.971 272.08 173.226 261.272 168.438 260.745 C 185.199 258.374 194.898 248.739 194.58 232.833 C 203.783 230.592 212.56 225.311 221.295 223.541 C 221.513 235.039 219.563 249.805 214.5 259.788 Z" style="fill: rgb(46, 182, 230);"/>
  <path d="M 194.562 243.625 C 194.562 231.837 194.15 133.486 194.15 121.417 C 203.196 121.417 211.963 121.417 221.504 121.417 C 221.504 129.621 221.71 221.751 221.241 230.466 C 211.968 234.272 203.368 240.288 194.562 243.625 Z" style="fill: rgb(46, 182, 230);"/>
  <path d="M165.776 219.606C176.453 218.44 184.486 225.019 184.837 234.783C185.153 243.565 177.77 251.054 168.843 251.007C159.732 250.959 152.456 243.206 153.022 234.149C153.463 227.102 157.808 222.031 165.776 219.606Z" style="fill: rgb(58, 152, 102);"/>
</svg>